<svg width="87" height="34" viewBox="0 0 87 34" fill="none" xmlns="http://www.w3.org/2000/svg" shape-rendering="geometricPrecision" preserveAspectRatio="xMidYMid meet">
<path d="M38.2 20.944C37.81 20.658 37.264 20.346 36.9 20.086H36.822L36.64 20.242C36.484 20.372 36.224 20.684 36.146 20.814H36.016C35.73 20.528 35.236 20.398 34.872 20.268C34.3 20.19 33.78 19.956 33.52 19.618C33.78 19.202 33.676 18.812 33.624 18.318C33.598 18.006 33.702 17.33 33.728 16.706C33.78 16.16 33.858 14.938 33.936 14.262L34.092 12.468C34.118 12 34.144 11.636 34.3 11.09C34.352 10.908 34.43 10.596 34.638 10.31C34.768 10.076 34.976 10.076 35.34 10.128C35.938 10.232 36.744 10.336 36.978 10.83C37.03 10.934 37.03 11.064 37.03 11.168C37.03 12.234 36.874 13.3 36.77 14.34C36.744 14.6 36.666 14.86 36.666 15.094C36.614 15.484 36.562 15.848 36.562 16.186V17.096C36.536 17.33 36.536 17.46 36.562 17.616C36.614 18.11 36.614 17.824 36.536 18.318C36.614 18.526 36.562 18.708 36.588 18.994C36.692 18.968 36.796 18.968 36.978 18.864L37.914 18.344C38.122 18.266 38.226 18.214 38.304 18.162L38.772 17.928C39.656 17.512 39.734 17.2 39.734 16.264C39.734 15.51 39.76 14.782 39.864 14.028L39.916 13.43L39.422 13.898C39.24 14.054 39.084 14.106 38.85 14.132C38.642 14.132 38.434 14.184 38.226 14.236C38.07 14.132 37.914 14.054 37.758 13.924C37.628 13.82 37.55 13.716 37.42 13.612C37.706 12.832 38.226 12.312 38.876 11.896L40.41 10.986C40.67 10.856 41.19 10.778 41.398 10.856C41.788 10.96 42.178 11.116 42.516 11.298C42.62 11.35 42.724 11.48 42.776 11.584C42.984 12.208 43.088 12.78 42.854 13.43C42.438 14.47 41.944 15.952 41.918 16.108C41.866 16.29 41.84 16.472 41.814 16.706C42.282 16.498 42.698 16.29 43.166 16.16C43.686 15.9 43.608 16.212 43.036 16.81L42.074 17.668C41.892 17.824 41.684 17.954 41.58 18.058C41.45 18.162 41.19 18.344 40.956 18.552L40.358 18.994C39.968 19.306 38.85 20.216 38.2 20.944ZM41.554 24.636C41.476 24.636 41.424 24.61 41.424 24.506C41.372 23.96 40.462 23.752 40.384 23.232C40.384 23.18 40.384 23.128 40.436 23.076C40.488 22.972 40.566 22.92 40.618 22.868C40.904 22.556 41.164 22.426 41.45 22.088C41.996 21.412 42.542 20.71 43.036 19.982C43.27 19.618 43.504 19.15 43.816 18.838C43.894 18.786 44.154 19.046 44.518 19.202C44.596 19.254 44.674 19.254 44.726 19.28C44.856 19.384 45.038 19.956 44.96 20.19C44.908 20.372 44.752 20.554 44.674 20.658C44.57 20.762 44.388 20.996 44.31 21.152C43.764 22.01 43.27 22.738 42.646 23.336C42.438 23.518 42.36 23.648 42.282 23.752C42.932 23.648 43.582 23.492 44.232 23.336C45.012 23.154 45.766 22.946 46.546 22.608C47.456 22.192 48.522 21.334 48.756 20.45C48.808 20.372 49.016 20.814 49.016 20.892C49.068 20.996 48.99 21.256 48.964 21.36C48.886 21.594 48.574 22.166 48.496 22.244C47.3 23.726 45.038 24.142 43.296 24.428C42.724 24.532 42.126 24.48 41.554 24.636ZM46.884 18.682C46.832 18.76 46.806 18.63 46.676 18.474C46.65 18.11 46.546 18.24 46.416 18.214C46.364 18.292 46.312 18.396 46.234 18.474C46.208 18.474 45.922 18.396 45.87 18.318C45.74 18.24 45.428 18.266 45.324 18.188C45.038 17.798 45.194 17.85 44.934 17.46C44.856 17.382 44.804 16.81 44.752 16.732C44.7 16.602 44.622 15.926 44.622 15.51C44.622 14.834 44.778 13.794 44.882 13.066C44.96 12.468 45.116 11.844 45.22 10.96C45.324 10.154 45.532 8.802 45.662 7.606C45.714 7.216 45.454 7.164 45.272 7.138C45.012 7.086 44.856 6.93 44.856 6.722C44.856 6.54 45.168 6.358 45.298 6.28C45.428 6.202 45.558 6.176 45.636 6.176C45.74 6.15 45.896 6.15 45.948 6.15H46.416C46.572 6.15 47.066 6.254 47.274 6.436L47.404 6.592C47.716 6.93 47.924 7.216 47.976 7.71C48.002 7.866 47.924 7.996 48.002 8.178C48.002 8.256 47.976 8.256 48.08 8.256V7.736C48.132 7.736 48.132 7.892 48.132 7.97C48.34 8.412 48.366 8.62 48.314 9.166L48.054 11.116C47.976 11.662 47.846 12.208 47.742 12.78C48.028 12.676 48.678 12.442 49.094 12.208C49.536 11.948 49.744 11.714 50.628 11.922C50.81 11.948 50.862 12.104 50.914 12.156C50.966 12.208 51.07 12.182 51.096 12.208C51.122 12.208 51.122 12.312 51.2 12.364C51.252 12.39 51.408 12.624 51.46 12.65C51.512 12.702 51.694 12.91 51.85 12.962C51.824 13.092 51.694 13.066 51.564 13.118C50.29 13.664 49.224 14.236 48.652 14.548C48.132 14.834 47.664 15.042 47.378 15.224L47.3 15.9L47.144 17.2C47.118 17.408 47.144 17.642 47.118 17.876C47.092 18.24 46.988 18.318 46.884 18.682ZM58.9571 32.8C58.7491 32.8 58.4891 32.774 58.3071 32.696C58.2291 32.618 58.1251 32.618 58.0471 32.592L57.7611 32.462C57.6311 32.384 57.4751 32.202 57.3711 32.046C57.2671 31.89 57.1891 31.656 57.1631 31.448C57.1371 31.266 57.1631 31.084 57.2151 30.902C57.2671 30.72 57.3711 30.382 57.4491 30.252C57.5011 30.174 57.5531 30.044 57.5791 30.018C57.6311 29.94 57.7351 29.862 57.7351 29.81C57.7351 29.732 57.7611 29.68 57.8131 29.628C57.8651 29.576 57.8911 29.576 57.8911 29.524C57.8911 29.42 58.0471 29.342 58.1251 29.264C58.1771 29.238 58.1771 29.212 58.1771 29.212C58.1771 29.16 58.1771 29.082 58.2291 29.004C58.2551 28.952 58.3331 28.874 58.3591 28.822C58.3851 28.77 58.4371 28.718 58.4891 28.64C58.5411 28.562 58.6451 28.458 58.7491 28.38C58.7751 28.25 58.8791 28.224 58.9571 28.12C59.0611 28.094 59.1131 28.068 59.1911 28.068C59.2431 28.016 59.2431 27.99 59.2691 27.886C59.2951 27.756 59.3471 27.678 59.4251 27.626C59.4511 27.574 59.4771 27.574 59.5811 27.522C59.5811 27.496 59.6071 27.47 59.7111 27.47C59.7631 27.47 59.8151 27.392 59.8931 27.288C59.9191 27.21 59.9971 27.132 60.1531 27.106L60.5171 26.742C60.6991 26.69 60.8291 26.534 60.9071 26.43C60.9331 26.352 61.0891 26.3 61.1671 26.248C61.1671 26.17 61.2711 26.092 61.4011 25.988C61.5311 25.884 61.7131 25.728 61.8431 25.65C61.9731 25.546 62.3631 25.182 62.5711 25.026C62.5971 24.974 62.7011 24.948 62.7271 24.87L62.7791 24.844C62.9091 24.688 63.0131 24.584 63.1171 24.506C63.1691 24.454 63.2211 24.402 63.2991 24.35C63.4031 24.298 63.5331 24.194 63.6111 24.038C63.6111 24.038 63.6371 23.986 63.7151 23.986C63.7671 23.96 63.7931 23.908 63.7931 23.882C63.8191 23.856 63.8711 23.804 63.8971 23.7C63.9491 23.674 63.9491 23.622 63.9751 23.622C64.1311 23.596 64.1831 23.492 64.2091 23.414C64.2611 23.362 64.3391 23.18 64.4431 23.102C64.5991 22.998 64.7291 22.894 64.8071 22.738C64.8591 22.686 64.9371 22.53 64.9891 22.478C65.0411 22.374 65.1971 22.244 65.2491 22.114C65.3011 22.036 65.3791 21.932 65.4311 21.828C65.4831 21.724 65.4571 21.672 65.4051 21.646C65.2751 21.594 65.1451 21.568 64.9371 21.516H64.4431C64.1311 21.568 63.8451 21.49 63.5331 21.594C63.3771 21.646 63.2991 21.594 63.1951 21.646C63.1431 21.672 63.0651 21.672 63.0131 21.646H62.4931C62.3631 21.646 62.3111 21.594 62.2331 21.594C61.9731 21.594 61.6091 21.516 61.4271 21.334C61.2971 21.308 61.2711 21.282 61.1931 21.256C61.0111 21.178 60.8031 20.84 60.6991 20.632C60.6211 20.476 60.5951 20.216 60.5951 20.138C60.5951 20.034 60.6211 19.956 60.6211 19.93C60.6211 19.904 60.5951 19.8 60.6211 19.696C60.6471 19.566 60.7251 19.358 60.7771 19.228L61.0111 18.786C61.0631 18.682 61.2711 18.318 61.4011 18.24L61.4531 18.11C61.4791 18.058 61.5571 17.902 61.6351 17.824C61.7131 17.746 61.9991 17.382 62.1031 17.226L62.9091 16.134C62.7011 16.16 62.5711 16.212 62.3371 16.342C62.1551 16.446 61.8171 16.576 61.5051 16.784L61.2711 16.888C61.2451 16.914 61.1931 16.914 61.1671 16.992C61.0631 17.096 60.9331 17.148 60.7771 17.174C60.7511 17.2 60.6211 17.2 60.6211 17.252C60.5171 17.408 60.3611 17.512 60.2051 17.616C60.0491 17.772 59.8671 17.954 59.6591 18.032C59.6591 18.032 59.5551 18.11 59.4511 18.136C59.3731 18.162 59.2691 18.188 59.1391 18.188C59.0351 18.188 58.9831 18.162 58.9571 18.136C58.8791 18.058 58.8531 18.006 58.6191 17.98C58.5931 17.954 58.5931 17.954 58.5671 17.876C58.5151 17.772 58.4371 17.746 58.3331 17.694V17.616C58.3331 17.59 58.3331 17.538 58.3071 17.512L58.0211 17.122C58.0211 17.096 58.0471 17.044 58.1511 17.044C58.2551 17.044 58.4111 16.992 58.5151 16.888C58.6971 16.732 58.9051 16.524 59.1651 16.342C59.4771 16.108 59.9711 15.848 60.2571 15.692C60.5431 15.536 61.2971 15.198 61.5831 15.094L61.8691 14.99C62.4931 14.262 62.5711 14.106 62.8831 13.56C63.1691 13.04 63.3251 12.442 63.5071 11.818C63.5071 11.792 63.5331 11.714 63.5331 11.714C62.8311 12.416 62.0511 13.144 61.6351 13.508C61.0111 14.028 60.2311 14.6 59.5811 15.016C58.9051 15.458 57.9171 15.978 56.9551 16.42L56.9291 16.498C56.9031 16.524 56.9031 16.576 56.9031 16.68C56.7991 16.888 56.7471 17.122 56.6951 17.382V18.318C56.6951 18.578 56.6951 18.812 56.6691 19.072C56.5911 19.202 56.5911 19.41 56.5911 19.592C56.5911 19.748 56.5911 19.852 56.5651 19.956V20.06C56.5911 20.216 56.5651 20.32 56.5651 20.45C56.5131 20.554 56.5131 20.658 56.5131 20.762V20.814L56.4871 20.762C56.4351 20.762 56.4351 20.736 56.3571 20.658C56.2011 20.632 56.1751 20.58 56.0971 20.658C56.0451 20.736 55.9411 20.762 55.8891 20.736C55.7071 20.658 55.5511 20.658 55.3171 20.658C55.2391 20.658 55.0831 20.632 55.0571 20.554C54.9791 20.45 54.8491 20.372 54.7451 20.32C54.7191 20.32 54.6671 20.294 54.6411 20.242C54.4591 20.164 54.3811 20.06 54.3031 20.008C54.3031 20.008 54.2771 19.956 54.2771 19.93C54.3551 19.748 54.3031 19.514 54.3551 19.41C54.3551 19.306 54.3551 19.15 54.3811 19.072C54.4331 18.916 54.4331 18.812 54.4331 18.708L54.5371 17.902C54.6671 17.382 54.8231 16.862 54.9271 16.342C54.9791 16.16 55.0051 15.952 55.0571 15.796C55.0831 15.692 55.0831 15.614 55.0831 15.562L55.1611 15.146L55.3171 14.496C55.3431 14.366 55.3951 14.236 55.3951 14.132C55.1871 14.236 55.0051 14.366 54.7711 14.522C54.5371 14.678 54.3551 14.73 54.1991 14.756C54.1211 14.808 54.0431 14.912 53.9391 15.042C53.9391 15.042 53.8611 15.068 53.8091 15.042C53.7311 14.99 53.6271 14.99 53.4191 14.99L53.2111 14.834C53.0551 14.782 52.9251 14.704 52.7431 14.6C52.6391 14.522 52.5871 14.418 52.5351 14.366C52.4311 14.34 52.4311 14.184 52.3791 14.08V14.028C52.4311 13.924 52.4311 13.898 52.4831 13.872C52.5091 13.872 52.5611 13.846 52.6131 13.846C52.8211 13.846 52.9511 13.768 53.1331 13.638L54.7191 12.494C55.1871 12.156 55.6811 11.844 56.1751 11.558C56.7731 11.22 57.3191 10.934 57.8651 10.674C58.2551 10.518 58.6451 10.31 59.0611 10.154C59.1911 10.102 59.3471 10.05 59.4251 9.946C59.4511 9.816 59.5811 9.816 59.6331 9.816C59.8671 9.79 60.0491 9.816 60.2311 9.868C60.3611 9.946 60.4911 9.972 60.5951 10.024C60.7511 10.102 60.8811 10.258 60.9331 10.31C61.0371 10.362 61.0631 10.388 61.1411 10.544C61.1411 10.596 61.1411 10.674 61.0631 10.674L61.0371 10.726C60.6471 10.83 60.3351 11.038 60.0751 11.142C59.7631 11.246 59.5031 11.428 59.2171 11.61C58.8531 11.792 58.4111 12.026 58.3071 12.104C58.1511 12.182 57.8391 12.442 57.7351 12.52C57.7091 12.702 57.6571 12.858 57.6311 13.014C57.6051 13.404 57.5271 13.716 57.4491 14.08C57.4491 14.132 57.4231 14.21 57.3971 14.288C58.2551 13.898 59.4251 13.118 60.0491 12.624C60.6731 12.13 61.0631 11.74 61.4791 11.402C61.9211 11.012 62.7271 10.206 63.4811 9.452C63.5591 9.374 63.6371 9.296 63.7151 9.192C63.7671 8.854 63.8191 8.516 63.8971 8.204L64.1051 7.242C64.1831 6.956 64.2351 6.618 64.2871 6.306C64.3651 5.838 64.3391 5.578 64.2351 5.344C64.1571 5.162 64.0531 4.85 64.0791 4.642C64.1051 4.434 64.2871 4.356 64.4431 4.382C64.5991 4.356 64.7551 4.408 64.8851 4.434L65.2751 4.538C65.7431 4.694 66.0291 4.772 66.2631 4.902C66.3931 4.954 66.5751 4.928 66.7051 5.058C66.8611 5.214 66.9911 5.344 67.0171 5.448L67.1211 5.63C67.1211 5.708 67.2251 5.89 67.2511 6.046C67.2771 6.358 67.2251 6.774 67.0691 7.294C66.9651 7.866 66.8351 8.23 66.7831 8.646C66.7051 9.14 66.6011 9.582 66.5491 10.102C66.4971 10.674 66.3931 11.272 66.3931 11.87C66.3931 12.234 66.2891 12.52 66.2371 12.806C65.2491 13.274 64.7551 13.638 64.2351 14.366C64.2611 14.366 64.3391 14.392 64.3391 14.392C64.4691 14.444 64.8851 14.73 64.9891 14.782C65.1451 14.808 65.3011 14.912 65.3531 15.042C65.4051 15.198 65.4311 15.51 65.4311 15.666C65.4311 15.77 65.4051 15.848 65.4051 15.9C65.4051 15.952 65.3531 16.108 65.2751 16.16C65.2231 16.29 65.1711 16.342 65.1451 16.524C65.0411 16.654 64.9371 16.784 64.8591 16.914C64.8331 16.992 64.8331 16.992 64.8071 16.992C64.7291 17.044 64.5991 17.148 64.5731 17.2C64.4431 17.408 64.3651 17.538 64.2611 17.616C64.2091 17.616 64.1831 17.642 64.1831 17.694C64.1311 17.746 64.1571 17.772 64.0271 17.798C64.0011 17.798 63.9231 17.85 63.8971 17.876C63.8971 17.954 63.8191 17.954 63.8191 17.98C63.7931 18.084 63.6111 18.188 63.5331 18.344C63.5331 18.37 63.5331 18.396 63.4291 18.474C63.4291 18.474 63.4291 18.552 63.4031 18.552C63.3251 18.578 63.3251 18.682 63.2471 18.76C63.2211 18.838 63.1951 18.942 63.1171 18.968C63.1171 19.02 63.0651 19.046 63.0391 19.098C63.0391 19.124 63.0131 19.15 63.0131 19.202C63.0131 19.358 62.8831 19.462 62.8051 19.566L62.6751 19.774C62.6231 19.852 62.5711 19.956 62.5451 20.034C62.5451 20.112 62.5451 20.138 62.4931 20.19C62.4931 20.294 62.5451 20.32 62.5451 20.32C62.5971 20.346 62.7271 20.346 62.8311 20.346H63.5851L64.1831 20.372C64.4431 20.372 64.8331 20.424 65.0671 20.476C65.2751 20.528 65.5871 20.632 65.7951 20.71C65.9771 20.788 66.1591 20.866 66.2371 20.918L66.4191 21.048L66.5751 21.204L66.8091 21.412C66.9391 21.49 66.9651 21.672 66.9651 21.854C66.9651 21.984 66.9391 22.062 66.9391 22.166C66.9131 22.244 66.9131 22.322 66.8871 22.4C66.8091 22.556 66.7051 22.686 66.5751 22.842C66.4451 22.998 66.2371 23.258 66.0291 23.44C65.8991 23.57 65.7951 23.7 65.5351 23.882C65.5091 23.882 65.4571 23.908 65.4051 23.908C65.2751 23.986 65.2231 24.116 65.1451 24.22C65.0151 24.324 64.9111 24.454 64.8591 24.506C64.8071 24.584 64.7291 24.636 64.5731 24.766C64.4691 24.792 64.4691 24.792 64.4431 24.87C64.3911 24.948 64.3391 24.974 64.2611 25.026C64.2091 25.078 64.1051 25.13 63.9751 25.234C63.7671 25.39 63.5851 25.572 63.4031 25.728L62.9611 26.118C62.8571 26.222 62.7271 26.352 62.5971 26.404C62.5971 26.404 62.5711 26.43 62.5451 26.482C62.5451 26.508 62.4931 26.534 62.4931 26.534C62.3111 26.612 62.2331 26.794 62.0771 26.898C61.9991 27.028 61.2191 27.574 61.0631 27.834C61.0631 27.834 60.9851 27.86 60.9851 27.886C60.7771 28.12 60.4911 28.38 60.2571 28.562C60.2311 28.614 60.2311 28.64 60.2051 28.64C59.9971 28.848 59.8411 29.134 59.6071 29.342C59.4771 29.446 59.3731 29.602 59.2431 29.706C59.1911 29.784 59.1911 29.81 59.1651 29.836C59.0611 30.018 59.0091 30.096 58.9311 30.2C58.8791 30.304 58.8531 30.382 58.8271 30.408C58.5931 30.668 58.4111 31.006 58.3851 31.24C58.3591 31.37 58.3591 31.448 58.3591 31.526C58.3591 31.734 58.5671 31.89 58.7751 31.916C58.9311 31.968 59.1131 31.968 59.2951 31.968C59.6071 31.968 59.9711 31.942 60.2571 31.89C61.0371 31.734 61.8431 31.526 62.5191 31.292C62.9871 31.162 63.4551 30.954 63.7411 30.824C64.0531 30.668 64.9631 30.278 65.2491 30.096C65.7691 29.81 66.4711 29.264 66.6531 29.004C66.8351 28.822 66.9391 28.64 66.9651 28.588C66.9911 28.536 67.0431 28.51 67.0951 28.51C67.1471 28.51 67.1991 28.536 67.2251 28.562C67.2511 28.588 67.3031 28.666 67.2771 28.77L67.0431 29.264C66.9391 29.42 66.7311 29.68 66.6271 29.784C66.4971 29.914 66.1851 30.252 65.7951 30.434C65.6131 30.564 65.1451 30.876 64.9891 30.928C64.9371 30.98 64.8331 30.98 64.7551 31.006C64.5731 31.162 64.3911 31.266 64.1831 31.292C64.0011 31.422 63.7671 31.474 63.5851 31.552C63.4031 31.656 63.1691 31.76 62.9871 31.89C62.9351 31.89 62.9091 31.89 62.8571 31.942C62.4671 32.02 62.1291 32.15 61.8691 32.28L60.6991 32.592C60.3871 32.618 60.2311 32.722 60.0751 32.748C59.7891 32.8 59.1651 32.8 58.9571 32.8ZM56.7731 9.088C57.2411 8.776 57.5271 7.918 57.2671 7.424C57.1111 7.138 56.9551 6.774 56.5911 6.566C56.3311 6.878 56.1751 7.216 56.0971 7.528C55.9671 7.944 55.9411 8.386 56.0711 8.802C56.1231 9.14 56.5391 9.296 56.7731 9.088ZM56.6431 10.076C56.4611 10.076 56.2531 10.05 56.0971 9.972C55.0831 9.452 54.3291 8.88 54.5111 7.372C54.5891 6.592 54.8231 5.89 55.3431 5.084C55.6291 4.98 55.9151 5.006 56.1231 5.084C56.6431 5.188 57.1891 5.266 57.6831 5.396C57.8391 5.422 58.0211 5.448 58.1251 5.5C59.2171 5.916 59.3471 6.358 59.1651 7.398C59.0871 7.84 58.9311 8.308 58.7751 8.776C58.4891 9.738 57.4231 10.024 56.6431 10.076ZM77.2165 23.856C76.8005 23.882 76.4365 23.83 76.0985 23.596C75.7345 23.362 75.4745 23.05 75.3185 22.608C75.0065 21.828 74.7465 21.074 74.5385 20.268C74.3825 19.696 74.0185 18.11 74.0185 17.564C74.0185 17.434 73.9405 17.122 73.9145 16.706C73.4205 17.33 73.0045 17.824 72.6145 18.24C72.4845 18.578 72.2245 18.734 71.9905 18.942C71.8085 19.124 71.6785 19.228 71.5485 19.384C71.3925 19.592 71.1845 19.67 70.9245 19.644C70.8725 19.644 70.7945 19.722 70.7165 19.748C70.6125 19.8 70.5345 19.774 70.4825 19.696C70.4305 19.566 70.3525 19.514 70.2485 19.54C69.8585 19.722 69.4945 19.566 69.1045 19.54C68.8705 19.514 68.6365 19.254 68.6105 18.994C68.5845 18.812 68.6105 18.604 68.5845 18.422C68.5845 18.24 68.6365 18.084 68.7925 17.954C68.9485 17.824 69.0525 17.642 69.1305 17.434C69.2605 17.122 69.5465 16.862 69.9105 16.498C71.1065 15.38 72.7965 13.456 73.4465 12.624C74.0705 11.818 74.4605 11.246 74.7205 10.778C74.9285 10.388 75.2145 9.894 75.5785 9.322C75.7345 9.114 75.8645 8.906 75.7345 8.62C75.6825 8.49 75.7865 8.36 75.9165 8.334L76.5405 8.204C76.7745 8.282 77.0345 8.386 77.3725 8.386C77.8665 8.412 78.1265 8.828 77.9445 9.296C77.7105 9.92 77.4245 10.544 77.1905 11.194C77.1385 11.35 77.0345 11.506 76.9045 11.61C76.6705 11.896 76.5145 12.234 76.3585 12.572L75.7865 13.872C75.9425 14.236 76.2805 15.016 76.3845 15.536C76.5925 15.406 76.9825 15.094 77.1645 14.938L80.5965 12.078C81.5845 11.272 82.5985 10.232 83.6125 9.348C83.7685 8.724 83.8985 7.84 84.1845 7.242C84.2885 7.034 84.3665 6.826 84.4445 6.592C84.4965 6.41 84.7565 6.358 84.9905 6.332C85.2505 6.254 85.4845 6.306 85.7445 6.41C85.8745 6.462 86.0045 6.54 86.1865 6.644C86.2125 6.722 86.2125 6.852 86.2645 6.956C86.5505 7.476 86.4725 8.022 86.3685 8.594C86.3165 8.958 86.2125 9.296 86.1865 9.66C86.1085 10.362 86.0045 11.038 85.9525 11.714C85.9525 12.052 85.8225 12.39 85.7965 12.728C85.7965 12.884 85.8745 13.066 85.7705 13.222C85.7185 13.274 85.7445 13.378 85.7705 13.456C85.8485 13.638 85.5365 14.496 85.6405 15.172L85.4065 15.64C85.3545 15.744 85.3545 15.848 85.4065 15.952C85.4325 16.03 85.4585 16.16 85.4325 16.186C85.2245 16.394 85.3285 16.68 85.2505 16.94C85.1465 16.992 85.0425 17.096 84.9385 17.122C84.7045 17.174 84.4705 17.148 84.2625 17.33C84.2625 17.356 84.1845 17.356 84.1585 17.356C83.8725 17.278 83.5865 17.252 83.3525 17.096C82.9625 16.836 82.7285 16.264 82.8325 15.744C83.0405 15.458 82.9365 15.146 82.9885 14.86C83.0405 14.574 83.0405 14.262 83.1705 13.976C83.1965 13.924 83.1965 13.846 83.1965 13.794L83.4045 12.052L82.9365 12.416L82.2345 12.988L81.3505 13.768L80.8825 14.21C80.5965 14.548 80.2845 14.86 79.9205 15.146L79.4525 15.588C79.4265 15.64 79.3745 15.692 79.3225 15.718C79.0105 15.822 78.7245 15.952 78.5165 16.238C78.3345 16.472 78.0745 16.68 77.8145 16.94C77.6585 16.914 77.4765 16.862 77.2945 16.914C77.1385 16.914 76.9305 16.914 76.7485 16.836C76.7485 17.486 76.8005 17.85 76.8265 18.24C76.8525 18.318 76.9045 18.396 76.9045 18.474C76.8265 18.734 76.8265 18.968 77.0085 19.202C77.0345 19.254 77.0345 19.358 77.0085 19.436C76.9825 19.748 76.9565 20.034 77.2425 20.268C77.2945 20.294 77.2945 20.372 77.2945 20.45C77.4245 21.1 77.6845 21.724 77.9445 22.322C78.1005 22.634 78.2045 22.946 78.1525 23.206C77.9445 23.362 77.7625 23.622 77.6845 23.7C77.5285 23.804 77.3985 23.83 77.2165 23.856ZM81.1945 23.752C81.8705 23.622 82.5205 23.284 83.0665 22.842C83.2745 22.686 83.3005 22.478 83.1965 22.244C82.7285 21.984 82.9365 21.62 82.7805 21.282C82.6505 21.1 82.5205 20.944 82.2345 20.892C82.0005 21.178 81.8185 21.464 81.6365 21.724C81.2725 22.218 81.0125 22.738 80.8565 23.336C80.7785 23.622 80.9085 23.804 81.1945 23.752ZM81.2725 24.662C80.8305 24.792 80.4145 24.636 80.0505 24.35C79.7645 24.116 79.6605 23.804 79.6865 23.414C79.7125 22.816 79.8685 22.27 80.1285 21.75L80.9865 20.19C80.7785 19.722 81.0125 19.254 81.2465 18.838C81.4545 18.422 81.9225 18.5 82.1825 18.292C82.7545 18.5 83.2225 18.656 83.7165 18.864C84.3665 19.15 84.8345 19.488 85.4065 19.93C85.4065 20.164 85.3545 20.346 85.4065 20.528C85.4845 20.918 85.3545 21.282 85.1985 21.646C84.8345 22.348 84.4965 23.206 83.6385 23.7C82.8845 24.142 82.1045 24.48 81.2725 24.662Z" fill="black"/>
<circle cx="12.5" cy="16.5" r="11.5" stroke="black" stroke-width="2"/>
<circle cx="12.5" cy="16.5" r="11.5" stroke="black" stroke-width="2"/>
<circle cx="16.5" cy="16.5" r="7.5" stroke="black" stroke-width="2"/>
<circle cx="16.5" cy="16.5" r="7.5" stroke="black" stroke-width="2"/>
</svg>
